<svg width="253" height="67" viewBox="0 0 253 67" fill="none" xmlns="http://www.w3.org/2000/svg">
<rect width="253" height="67" rx="8" fill="white"/>
<g opacity="0.8">
<path d="M34.7 30.63C34.9 20.86 45.65 15.95 52.13 15.63C51.74 15.28 51.34 14.95 50.92 14.63C35.54 15.73 32.79 22.28 30.14 33.4C28.27 41.3 22.3 41.3 18 45.88C18.11 46.04 18.23 46.2 18.34 46.37V46.42C18.44 46.57 18.55 46.71 18.66 46.86L19.01 47.32C19.13 47.48 19.26 47.63 19.39 47.78C25.89 47.67 34.44 43.21 34.7 30.63Z" fill="#446BA6"/>
</g>
<g opacity="0.05">
<path d="M58.9399 39.7601C55.3099 38.9001 51.8099 42.5501 49.9399 52.0301C54.2695 49.0871 57.4655 44.7552 58.9999 39.7501L58.9399 39.7601Z" fill="#446BA6"/>
</g>
<g opacity="0.2">
<path d="M60 31.8C53.59 31.8 47.68 37.8 46.72 47.5C46 54.16 41.29 55.6 37 56C41.6091 56.0047 46.111 54.6098 49.91 52C51.82 42.5201 55.31 38.87 58.91 39.73C59.6039 37.5529 59.9712 35.2849 60 33C60 32.6 60 32.2 60 31.8Z" fill="#446BA6"/>
</g>
<g opacity="0.4">
<path d="M46.6899 47.4999C47.6899 37.7899 53.5599 31.7999 59.9699 31.7999C59.8988 30.3734 59.6912 28.9569 59.3499 27.5699C52.9499 27.5699 47.6099 32.9299 45.6699 42.4899C44.3799 48.7999 38.4599 52.8899 32.6699 55.5999C34.0972 55.8714 35.5471 56.0053 36.9999 55.9999C41.2899 55.5999 45.9999 54.1599 46.6899 47.4999Z" fill="#446BA6"/>
</g>
<g opacity="0.6">
<path d="M59.3499 27.5699C58.8532 25.4662 58.0549 23.4453 56.9799 21.5699C53.0542 21.7185 49.3434 23.4014 46.6451 26.2567C43.9468 29.1121 42.4764 32.912 42.5499 36.8399C42.5499 46.5999 35.2399 53.1499 23.4299 51.5599C26.1881 53.572 29.3628 54.939 32.7199 55.5599C38.4699 52.8499 44.3799 48.7699 45.7199 42.4499C47.6099 32.9199 52.9999 27.5599 59.3499 27.5599V27.5699Z" fill="#446BA6"/>
</g>
<g opacity="0.8">
<path d="M57 21.61C56.3032 20.3836 55.493 19.2252 54.58 18.15C48.2 18.28 40.19 22 39.3 35.37C38.65 45.12 28.3 49.95 21.74 50.21C22.28 50.69 22.84 51.14 23.42 51.57C35.24 53.15 42.55 46.57 42.55 36.85C42.4845 32.9239 43.9612 29.1287 46.6629 26.2793C49.3647 23.4299 53.076 21.7535 57 21.61V21.61Z" fill="#446BA6"/>
</g>
<path d="M52.1299 15.6801C45.6499 15.9501 34.8999 20.8601 34.6999 30.6801C34.4399 43.2601 25.8899 47.6801 19.4199 47.8801C20.1322 48.734 20.9113 49.5298 21.7499 50.2601C28.2999 50.0001 38.6599 45.1201 39.2999 35.3701C40.1899 22.0001 48.1999 18.2801 54.5599 18.1501C53.8115 17.2683 52.9993 16.4428 52.1299 15.6801V15.6801Z" fill="#272A41"/>
<g opacity="0.6">
<path d="M50.92 14.69L49.92 13.96C37.74 13 31 18.51 29.75 25C27.82 34.76 20.28 37 15.54 41.3L18 45.9C22.35 41.3 28.32 41.3 30.19 33.48C32.84 22.36 35.59 15.81 50.97 14.71L50.92 14.69Z" fill="#446BA6"/>
</g>
<g opacity="0.4">
<path d="M49.88 14C47.6503 12.4832 45.1682 11.3759 42.55 10.73C35.55 10.73 32.44 15.26 28.27 21.23C22.8 29 20.28 30.64 14 33.46C14.0493 36.1434 14.5706 38.7973 15.54 41.3C20.27 37 27.82 34.76 29.74 25C31 18.51 37.74 13 49.88 14Z" fill="#446BA6"/>
</g>
<g opacity="0.2">
<path d="M33.51 10.26L32.94 10.36C27.09 11.59 27.15 19.56 20.94 23.11C17.77 24.91 16.11 24.72 15.59 24.72C14.5543 27.3584 14.0153 30.1656 14 33V33.46C20.27 30.65 22.8 29.02 28.26 21.18C32.44 15.18 35.54 10.68 42.55 10.68C40.7344 10.2294 38.8707 10.0011 37 10C35.8319 10.0016 34.6655 10.0885 33.51 10.26V10.26Z" fill="#446BA6"/>
</g>
<g opacity="0.05">
<path d="M20.89 23.11C27.13 19.56 27.07 11.59 32.89 10.36C29.0117 11.0632 25.3791 12.7514 22.341 15.2625C19.3028 17.7736 16.9609 21.0234 15.54 24.7C16.06 24.72 17.72 24.9 20.89 23.11Z" fill="#446BA6"/>
</g>
<path d="M80.9199 19.25C80.3389 19.2257 79.7716 19.4304 79.3399 19.82C79.1493 19.9854 78.9963 20.1896 78.8911 20.419C78.7859 20.6484 78.7309 20.8976 78.7299 21.15C78.7127 21.6218 78.8815 22.0814 79.1999 22.43C79.5506 22.7836 79.9516 23.0835 80.3899 23.32C80.8899 23.6025 81.4039 23.8595 81.9299 24.09C82.4749 24.3363 82.9913 24.6415 83.4699 25C83.9491 25.354 84.3535 25.7992 84.6599 26.31C85.0078 26.9171 85.1744 27.6111 85.1399 28.31C85.1448 28.9744 85.0085 29.6322 84.7399 30.24C84.4727 30.8164 84.0838 31.3281 83.5999 31.74C83.0824 32.1684 82.4838 32.4881 81.8399 32.68C81.0984 32.9086 80.3258 33.0199 79.5499 33.01C78.8758 33.0153 78.2037 32.9347 77.5499 32.77C77.0626 32.6581 76.6011 32.4544 76.1899 32.17C76.3299 31.6833 76.4499 31.2333 76.5499 30.82C76.6499 30.41 76.7399 29.97 76.8099 29.49H77.2099C77.2633 29.7986 77.3681 30.096 77.5199 30.37C77.6767 30.6401 77.8759 30.8832 78.1099 31.09C78.3655 31.3105 78.6607 31.4802 78.9799 31.59C79.347 31.7143 79.7325 31.7752 80.1199 31.77C80.4575 31.7988 80.7973 31.7568 81.1176 31.6466C81.4379 31.5364 81.7316 31.3604 81.9799 31.13C82.1748 30.9304 82.3281 30.6942 82.4311 30.435C82.5341 30.1759 82.5847 29.8988 82.5799 29.62C82.6025 29.1401 82.4375 28.6704 82.1199 28.31C81.7834 27.9504 81.3918 27.6466 80.9599 27.41C80.4999 27.15 79.9599 26.9 79.4399 26.65C78.9008 26.4127 78.3907 26.114 77.9199 25.76C77.4551 25.4032 77.0616 24.9622 76.7599 24.46C76.4241 23.8489 76.2649 23.1564 76.2999 22.46C76.2867 21.7926 76.4198 21.1304 76.6899 20.52C76.9229 19.9863 77.2633 19.5063 77.6899 19.11C78.1335 18.7268 78.646 18.4316 79.1999 18.24C79.782 18.0587 80.3907 17.9776 80.9999 18C81.6764 17.9882 82.3508 18.0792 82.9999 18.27C83.5284 18.4333 84.023 18.6907 84.4599 19.03C84.3399 19.35 84.2299 19.67 84.1399 19.97C84.0499 20.27 83.9299 20.65 83.7899 21.12H83.4699C83.3205 20.565 82.9866 20.0774 82.5231 19.7375C82.0596 19.3976 81.4942 19.2257 80.9199 19.25V19.25Z" fill="#2E3147"/>
<path d="M86.8701 25.5C86.8623 24.4908 87.0596 23.4906 87.4501 22.56C87.8273 21.659 88.3816 20.8429 89.0801 20.16C89.81 19.4508 90.678 18.8994 91.6301 18.54C92.708 18.144 93.8524 17.9606 95.0001 18C96.0676 17.9891 97.1302 18.1443 98.1501 18.46C99.079 18.7467 99.9398 19.2197 100.68 19.85C101.413 20.4959 101.991 21.2992 102.37 22.2C102.809 23.2506 103.024 24.3815 103 25.52C103.014 26.5511 102.809 27.5734 102.4 28.52C102.007 29.4192 101.439 30.2316 100.73 30.91C99.9973 31.6033 99.1339 32.1438 98.1901 32.5C97.1511 32.8886 96.0493 33.0819 94.9401 33.07C93.883 33.0751 92.8301 32.9372 91.8101 32.66C90.8727 32.4092 90.0021 31.9551 89.2601 31.33C88.4866 30.6733 87.8828 29.8397 87.5001 28.9C87.0554 27.8229 86.8408 26.6648 86.8701 25.5ZM99.5001 25C99.5135 24.1707 99.3988 23.3443 99.1601 22.55C98.9656 21.8798 98.6467 21.2522 98.2201 20.7C97.8356 20.2013 97.3387 19.8004 96.7701 19.53C96.1855 19.2545 95.5463 19.1144 94.9001 19.12C94.2205 19.1077 93.5514 19.2879 92.9701 19.64C92.3901 19.9914 91.8977 20.4701 91.5301 21.04C91.1116 21.6722 90.807 22.3728 90.6301 23.11C90.4259 23.9445 90.3252 24.8009 90.3301 25.66C90.31 26.6185 90.4279 27.575 90.6801 28.5C90.8819 29.1852 91.2223 29.8216 91.6801 30.37C92.0647 30.8142 92.5522 31.1575 93.1001 31.37C93.6346 31.5826 94.2048 31.6912 94.7801 31.69C95.4084 31.6884 96.029 31.552 96.6001 31.29C97.193 31.0043 97.7103 30.5829 98.1101 30.06C98.5644 29.4316 98.9031 28.7273 99.1101 27.98C99.3851 27.011 99.5165 26.007 99.5001 25V25Z" fill="#2E3147"/>
<path d="M106 22.42C106 21.42 106 20.63 106 19.97C106 19.31 105.95 18.73 105.94 18.22C106.561 18.3668 107.209 18.3668 107.83 18.22L112.38 23.22C113.88 24.86 115.38 26.54 116.99 28.22V24.38C116.99 23.69 116.99 23.01 116.99 22.38C116.99 21.75 116.99 21.1 116.99 20.54C116.99 19.98 116.99 19.49 116.99 19.08C116.984 18.8055 116.96 18.5316 116.92 18.26C117.249 18.3258 117.584 18.3626 117.92 18.37C118.256 18.362 118.59 18.3252 118.92 18.26C118.85 19.54 118.79 20.7 118.75 21.73C118.71 22.76 118.67 23.73 118.64 24.65C118.61 25.57 118.64 26.47 118.64 27.36C118.64 28.25 118.64 29.21 118.64 30.22V32.75C118.354 32.7348 118.066 32.7348 117.78 32.75C117.504 32.7333 117.226 32.7333 116.95 32.75C114.063 29.37 110.993 25.9733 107.74 22.56C107.74 22.9666 107.74 23.3766 107.74 23.79C107.74 24.19 107.74 24.61 107.74 25.03V27.48C107.74 28.32 107.74 29.04 107.74 29.63C107.74 30.22 107.74 30.72 107.74 31.12C107.74 31.52 107.74 31.87 107.74 32.12C107.74 32.37 107.74 32.58 107.74 32.74C107.574 32.7255 107.406 32.7255 107.24 32.74H106.75C106.43 32.74 106.1 32.74 105.75 32.74C105.75 32.63 105.81 32.22 105.86 31.54C105.91 30.86 105.94 30.01 105.99 29.02C106.04 28.03 106.08 26.95 106.12 25.79C106.16 24.63 106 23.49 106 22.42Z" fill="#2E3147"/>
<path d="M133.91 32.71C133.58 32.71 133.26 32.71 132.91 32.71H131.12C130.823 32.6948 130.526 32.6948 130.23 32.71L129.53 30.6C129.29 29.88 129.04 29.17 128.77 28.45C128.323 28.45 127.873 28.45 127.42 28.45H125C124.64 28.45 124.27 28.45 123.91 28.45C123.63 29.17 123.37 29.88 123.13 30.6C122.89 31.32 122.67 32.02 122.47 32.71C122.307 32.6951 122.143 32.6951 121.98 32.71H120.98C120.797 32.6962 120.613 32.6962 120.43 32.71C120.6 32.34 120.82 31.84 121.1 31.19L122 29L123.09 26.37L124.25 23.53C124.63 22.5767 125.01 21.6367 125.39 20.71C125.76 19.78 126.1 18.92 126.39 18.12L126.79 18.19C127.055 18.23 127.325 18.23 127.59 18.19L127.99 18.12C128.44 19.31 128.92 20.59 129.44 21.95C129.96 23.31 130.44 24.66 130.99 25.95C131.54 27.24 131.99 28.51 132.5 29.69C133.01 30.87 133.51 31.89 133.91 32.71ZM126.45 22.19C126.08 23.03 125.74 23.86 125.45 24.68C125.16 25.5 124.81 26.35 124.5 27.2H128.36L127.44 24.68C127.147 23.86 126.817 23.03 126.45 22.19Z" fill="#2E3147"/>
<path d="M139.42 26.0601V26.9301C139.42 28.1001 139.42 29.1301 139.42 30.0401C139.42 30.9501 139.49 31.8401 139.55 32.7101C139.29 32.6941 139.03 32.6941 138.77 32.7101H136.87C136.61 32.6941 136.35 32.6941 136.09 32.7101C136.14 31.8401 136.19 30.9501 136.21 30.0401C136.23 29.1301 136.26 28.1001 136.26 26.9301V24.0601C136.26 22.9001 136.26 21.8601 136.21 20.9501C136.16 20.0401 136.14 19.1301 136.09 18.2201L136.87 18.2901C137.203 18.3083 137.537 18.3083 137.87 18.2901C138.25 18.2901 138.68 18.2701 139.16 18.2301C139.65 18.2301 140.25 18.1801 140.97 18.1801C141.5 18.1801 141.97 18.1801 142.34 18.1801C142.676 18.2011 143.01 18.2445 143.34 18.3101C143.586 18.3611 143.827 18.4347 144.06 18.5301C144.263 18.6226 144.457 18.733 144.64 18.8601C145.09 19.1832 145.45 19.615 145.688 20.115C145.926 20.6151 146.033 21.1673 146 21.7201C146.036 22.633 145.733 23.527 145.15 24.2301C144.504 24.9255 143.659 25.404 142.73 25.6001C143.4 26.8001 144.13 27.9901 144.9 29.1801L147.22 32.7101C146.9 32.7101 146.58 32.7101 146.27 32.7101H144.36C144.05 32.7101 143.73 32.7101 143.36 32.7101L139.59 26.0601H139.42ZM142.75 22.1901C142.769 21.6896 142.704 21.1895 142.56 20.7101C142.458 20.3797 142.255 20.0896 141.98 19.8801C141.683 19.6739 141.339 19.5466 140.98 19.5101C140.486 19.4452 139.988 19.4151 139.49 19.4201C139.49 21.3301 139.43 23.2501 139.43 25.1601H139.67H139.89C140.277 25.1867 140.666 25.134 141.032 25.005C141.399 24.876 141.735 24.6736 142.02 24.4101C142.543 23.7931 142.804 22.9968 142.75 22.1901V22.1901Z" fill="#2E3147"/>
<path d="M159.13 19.2501C158.549 19.2279 157.983 19.4323 157.55 19.8201C157.369 19.9823 157.222 20.1788 157.118 20.3981C157.013 20.6175 156.953 20.8553 156.941 21.098C156.929 21.3406 156.965 21.5833 157.047 21.8119C157.13 22.0405 157.256 22.2506 157.42 22.4301C157.767 22.7882 158.168 23.0887 158.61 23.3201C159.109 23.6046 159.623 23.8616 160.15 24.0901C160.694 24.3386 161.21 24.6436 161.69 25.0001C162.164 25.3595 162.568 25.8037 162.88 26.3101C163.22 26.92 163.383 27.6126 163.35 28.3101C163.36 28.9749 163.223 29.6338 162.95 30.2401C162.683 30.8165 162.294 31.3282 161.81 31.7401C161.292 32.1685 160.694 32.4881 160.05 32.6801C159.309 32.9094 158.536 33.0208 157.76 33.0101C157.086 33.0163 156.414 32.9356 155.76 32.7701C155.272 32.6603 154.81 32.4565 154.4 32.1701C154.54 31.6834 154.66 31.2334 154.76 30.8201C154.86 30.4101 154.94 29.9701 155.01 29.4901H155.41C155.467 29.7992 155.575 30.0966 155.73 30.3701C155.884 30.6424 156.083 30.886 156.32 31.0901C156.572 31.3105 156.864 31.4803 157.18 31.5901C157.547 31.7144 157.933 31.7753 158.32 31.7701C158.659 31.7991 159 31.7572 159.322 31.647C159.644 31.5368 159.94 31.3608 160.19 31.1301C160.385 30.9305 160.538 30.6943 160.641 30.4351C160.744 30.1759 160.795 29.8989 160.79 29.6201C160.809 29.139 160.64 28.6694 160.32 28.3101C159.985 27.9483 159.594 27.6442 159.16 27.4101C158.7 27.1501 158.16 26.9001 157.65 26.6501C157.11 26.415 156.599 26.1163 156.13 25.7601C155.663 25.406 155.269 24.9645 154.97 24.4601C154.63 23.8501 154.467 23.1575 154.5 22.4601C154.487 21.7927 154.62 21.1305 154.89 20.5201C155.12 19.9849 155.461 19.5045 155.89 19.1101C156.332 18.7249 156.845 18.4294 157.4 18.2401C157.979 18.0419 158.588 17.9438 159.2 17.9501C159.877 17.9372 160.551 18.0282 161.2 18.2201C161.732 18.3835 162.229 18.6409 162.67 18.9801C162.54 19.3001 162.43 19.6201 162.34 19.9201C162.25 20.2201 162.13 20.6001 161.99 21.0701H161.68C161.521 20.5244 161.183 20.048 160.721 19.7179C160.258 19.3877 159.698 19.2229 159.13 19.2501V19.2501Z" fill="#2E3147"/>
<path d="M172.63 23.17C172.91 22.65 173.19 22.11 173.45 21.55C173.71 20.99 173.98 20.42 174.23 19.85C174.48 19.28 174.73 18.74 174.97 18.22L175.45 18.29C175.613 18.3053 175.777 18.3053 175.94 18.29C176.106 18.3052 176.274 18.3052 176.44 18.29L176.95 18.22C176.71 18.61 176.42 19.13 176.06 19.77C175.7 20.41 175.32 21.1 174.91 21.85C174.5 22.6 174.09 23.36 173.67 24.14C173.25 24.92 172.88 25.64 172.55 26.3C172.55 26.63 172.55 26.98 172.55 27.3C172.55 27.62 172.55 27.99 172.55 28.3C172.55 29.02 172.55 29.73 172.55 30.43C172.55 31.13 172.63 31.87 172.72 32.65C172.423 32.6348 172.126 32.6348 171.83 32.65H170C169.7 32.6346 169.4 32.6346 169.1 32.65C169.1 31.9833 169.15 31.3167 169.25 30.65C169.317 29.9855 169.351 29.3179 169.35 28.65C169.35 28.33 169.35 28 169.35 27.65C169.35 27.3 169.35 26.99 169.35 26.65C169 25.95 168.59 25.16 168.14 24.3L166.81 21.78C166.38 20.96 165.99 20.23 165.63 19.56L164.84 18.13L165.79 18.2C166.1 18.2 166.41 18.2 166.74 18.2C167.07 18.2 167.37 18.2 167.67 18.2L168.61 18.13C168.85 18.65 169.12 19.23 169.43 19.86L170.32 21.72C170.62 22.32 170.89 22.87 171.14 23.36C171.39 23.85 171.6 24.22 171.76 24.46C172.06 24.1133 172.35 23.6833 172.63 23.17Z" fill="#2E3147"/>
<path d="M183 19.25C182.419 19.2279 181.853 19.4323 181.42 19.82C181.231 19.9866 181.079 20.1911 180.974 20.4202C180.869 20.6494 180.813 20.898 180.81 21.15C180.801 21.3845 180.839 21.6185 180.921 21.8382C181.004 22.058 181.129 22.2591 181.29 22.43C181.637 22.7882 182.038 23.0886 182.48 23.32C182.979 23.6045 183.493 23.8616 184.02 24.09C184.564 24.3386 185.08 24.6436 185.56 25C186.034 25.3595 186.438 25.8037 186.75 26.31C187.09 26.9199 187.253 27.6126 187.22 28.31C187.23 28.9749 187.093 29.6337 186.82 30.24C186.553 30.8165 186.164 31.3282 185.68 31.74C185.162 32.1684 184.564 32.4881 183.92 32.68C183.179 32.9094 182.406 33.0208 181.63 33.01C180.956 33.0162 180.284 32.9356 179.63 32.77C179.142 32.6603 178.68 32.4565 178.27 32.17C178.41 31.6834 178.53 31.2334 178.63 30.82C178.72 30.41 178.81 29.97 178.88 29.49H179.28C179.337 29.7991 179.445 30.0966 179.6 30.37C179.914 30.9176 180.409 31.3385 181 31.56C181.367 31.6844 181.753 31.7452 182.14 31.74C182.477 31.7677 182.817 31.725 183.137 31.6149C183.457 31.5047 183.751 31.3294 184 31.1C184.195 30.9005 184.348 30.6643 184.451 30.4051C184.554 30.1459 184.605 29.8689 184.6 29.59C184.619 29.109 184.45 28.6394 184.13 28.28C183.795 27.9183 183.404 27.6142 182.97 27.38C182.51 27.12 181.97 26.87 181.46 26.62C180.92 26.385 180.409 26.0862 179.94 25.73C179.473 25.376 179.079 24.9345 178.78 24.43C178.44 23.8201 178.277 23.1274 178.31 22.43C178.297 21.7626 178.43 21.1004 178.7 20.49C178.93 19.9549 179.271 19.4744 179.7 19.08C180.142 18.6948 180.655 18.3993 181.21 18.21C181.789 18.0111 182.398 17.913 183.01 17.92C183.687 17.9071 184.361 17.9982 185.01 18.19C185.542 18.3534 186.039 18.6108 186.48 18.95C186.35 19.27 186.24 19.59 186.15 19.89L185.8 21.04H185.49C185.328 20.5102 184.997 20.0481 184.547 19.7248C184.097 19.4014 183.554 19.2346 183 19.25Z" fill="#2E3147"/>
<path d="M192.55 20.54C192.55 20.2 192.55 19.9599 192.5 19.7999H191.71L190.71 19.86L189.64 19.94C189.27 19.94 188.94 20.0099 188.64 20.0599C188.64 19.8999 188.69 19.75 188.71 19.59C188.72 19.4368 188.72 19.2831 188.71 19.1299C188.72 18.9734 188.72 18.8165 188.71 18.66C188.71 18.51 188.66 18.36 188.64 18.2H189.93C190.32 18.2 190.71 18.2 191.11 18.2H192.42H195.82H197.11C197.51 18.2 197.89 18.2 198.26 18.2H199.47C199.47 18.36 199.42 18.51 199.4 18.66C199.39 18.8165 199.39 18.9734 199.4 19.1299C199.39 19.2831 199.39 19.4368 199.4 19.59C199.4 19.75 199.4 19.8999 199.47 20.0599C199.19 20.0599 198.88 19.98 198.53 19.94L197.48 19.86L196.48 19.7999H195.7C195.7 19.8733 195.7 19.9733 195.7 20.1C195.7 20.22 195.7 20.37 195.7 20.54V26.93C195.7 28.1 195.7 29.13 195.7 30.04C195.7 30.95 195.77 31.8399 195.83 32.7099C195.57 32.694 195.31 32.694 195.05 32.7099H193.15C192.89 32.694 192.63 32.694 192.37 32.7099C192.43 31.8399 192.47 30.95 192.5 30.04C192.53 29.13 192.5 28.1 192.5 26.93V21.66C192.56 21.25 192.55 20.88 192.55 20.54Z" fill="#2E3147"/>
<path d="M201.77 21C201.77 20.09 201.7 19.18 201.65 18.27C202.28 18.27 202.91 18.27 203.52 18.33C204.13 18.39 204.77 18.33 205.4 18.33C206.4 18.33 207.4 18.33 208.17 18.33C208.94 18.33 209.53 18.33 209.81 18.26C209.743 18.5517 209.713 18.8507 209.72 19.15C209.72 19.37 209.72 19.55 209.72 19.67C209.72 19.79 209.72 19.94 209.79 20.1L208.47 20L207.06 19.92L205.82 19.85H205.04C205.04 20.63 204.95 21.39 204.95 22.15C204.95 22.91 204.95 23.68 204.95 24.45C205.86 24.45 206.69 24.45 207.42 24.39L209.73 24.28C209.73 24.52 209.66 24.7 209.65 24.83C209.64 24.9631 209.64 25.0969 209.65 25.23C209.641 25.3465 209.641 25.4635 209.65 25.58C209.65 25.7 209.65 25.87 209.72 26.09C208.12 25.97 206.53 25.9 204.94 25.9C204.94 26.35 204.94 26.8 204.94 27.25C204.94 27.7 204.94 28.15 204.94 28.6C204.94 29.52 204.96 30.4 205 31.24C205.8 31.24 206.6 31.22 207.4 31.18C208.2 31.14 209.01 31.07 209.83 30.97C209.83 31.12 209.78 31.26 209.76 31.39C209.74 31.52 209.76 31.69 209.76 31.91C209.76 32.13 209.76 32.31 209.76 32.44C209.774 32.5485 209.798 32.6555 209.83 32.76C209.45 32.76 208.98 32.76 208.43 32.76H202.08C201.944 32.7482 201.806 32.7482 201.67 32.76C201.67 31.89 201.77 31 201.79 30.09C201.81 29.18 201.79 28.15 201.79 26.98V24.06C201.82 22.9 201.8 21.86 201.77 21Z" fill="#2E3147"/>
<path d="M213.94 28C213.83 29.58 213.72 31.15 213.6 32.73C213.434 32.7148 213.266 32.7148 213.1 32.73H212.1C211.934 32.7155 211.766 32.7155 211.6 32.73C212.047 30.31 212.447 27.9067 212.8 25.52C213.15 23.13 213.48 20.7 213.8 18.24L214.24 18.31C214.383 18.3262 214.527 18.3262 214.67 18.31C214.803 18.3243 214.937 18.3243 215.07 18.31L215.51 18.24C215.89 19.08 216.29 19.94 216.7 20.81L217.95 23.42C218.36 24.28 218.78 25.13 219.19 25.96C219.6 26.79 220 27.58 220.38 28.32C221.227 26.7467 222.067 25.1 222.9 23.38C223.733 21.66 224.533 19.9467 225.3 18.24C225.888 18.3865 226.502 18.3865 227.09 18.24L227.54 22.14C227.7 23.5333 227.86 24.8933 228.02 26.22C228.17 27.55 228.33 28.79 228.48 29.94C228.63 31.09 228.78 32.02 228.9 32.73C228.617 32.7148 228.333 32.7148 228.05 32.73H226.33C226.033 32.715 225.736 32.715 225.44 32.73C225.37 31.28 225.26 29.73 225.1 28.03C224.94 26.33 224.77 24.67 224.6 23.03L222.24 27.92C221.46 29.52 220.7 31.13 219.94 32.75H219.74H219.34C219.274 32.7403 219.206 32.7403 219.14 32.75C218.38 31.17 217.62 29.6 216.87 28.02C216.12 26.44 215.34 24.85 214.54 23.24C214.22 24.81 214.05 26.41 213.94 28Z" fill="#2E3147"/>
<path d="M235.39 19.25C234.809 19.2236 234.241 19.4286 233.81 19.82C233.627 19.9809 233.479 20.1765 233.372 20.3956C233.266 20.6146 233.205 20.8526 233.192 21.0956C233.179 21.3387 233.214 21.5819 233.296 21.811C233.379 22.0402 233.506 22.2506 233.67 22.43C234.017 22.7882 234.418 23.0886 234.86 23.32C235.36 23.6026 235.874 23.8596 236.4 24.09C236.945 24.3364 237.461 24.6415 237.94 25C238.417 25.3567 238.821 25.8014 239.13 26.31C239.474 26.9182 239.638 27.6122 239.6 28.31C239.61 28.9749 239.473 29.6338 239.2 30.24C238.94 30.8181 238.554 31.3306 238.07 31.74C237.548 32.1678 236.947 32.4874 236.3 32.68C235.555 32.9074 234.779 33.0154 234 33C233.326 33.0054 232.654 32.9247 232 32.76C231.512 32.6503 231.05 32.4465 230.64 32.16C230.78 31.6734 230.9 31.2234 231 30.81C231.1 30.4 231.18 29.96 231.25 29.48H231.65C231.707 29.7892 231.815 30.0866 231.97 30.36C232.124 30.6324 232.323 30.876 232.56 31.08C232.816 31.3006 233.111 31.4703 233.43 31.58C233.793 31.7052 234.176 31.7661 234.56 31.76C234.899 31.7903 235.241 31.749 235.563 31.6388C235.885 31.5285 236.181 31.3518 236.43 31.12C236.625 30.9205 236.778 30.6843 236.881 30.4251C236.984 30.1659 237.035 29.8889 237.03 29.61C237.053 29.1302 236.888 28.6604 236.57 28.3C236.233 27.9405 235.842 27.6367 235.41 27.4C234.94 27.14 234.41 26.89 233.89 26.64C233.35 26.405 232.839 26.1062 232.37 25.75C231.905 25.3933 231.512 24.9523 231.21 24.45C230.874 23.8389 230.715 23.1465 230.75 22.45C230.737 21.7827 230.87 21.1205 231.14 20.51C231.37 19.9745 231.71 19.4938 232.14 19.1C232.584 18.7169 233.096 18.4216 233.65 18.23C234.229 18.0319 234.838 17.9338 235.45 17.94C236.127 17.9271 236.801 18.0182 237.45 18.21C237.982 18.3734 238.479 18.6309 238.92 18.97C238.79 19.29 238.68 19.61 238.59 19.91C238.5 20.21 238.39 20.59 238.24 21.06H237.93C237.77 20.5179 237.432 20.0452 236.972 19.7171C236.512 19.389 235.955 19.2246 235.39 19.25V19.25Z" fill="#2E3147"/>
<path d="M84.9 42.1301C84.9 41.4634 84.87 40.7734 84.81 40.0601L85.21 40.1201H85.6H85.98L86.38 40.0601C86.38 40.7667 86.35 41.4567 86.29 42.1301C86.29 42.8101 86.29 43.5001 86.29 44.2101V47.0001C86.29 47.7001 86.29 48.3901 86.29 49.0801C86.29 49.7701 86.35 50.4301 86.38 51.0801C86.14 51.0801 85.88 51.0801 85.6 51.0801C85.32 51.0801 85.06 51.0801 84.81 51.0801C84.85 50.4134 84.88 49.7467 84.9 49.0801C84.9 48.3901 84.9 47.7001 84.9 47.0001V45.5201H83.23H79.93H78.25V47.0001C78.25 47.7001 78.25 48.3901 78.25 49.0801C78.25 49.7701 78.31 50.4301 78.34 51.0801C78.1 51.0801 77.84 51.0801 77.56 51.0801C77.28 51.0801 77.02 51.0801 76.77 51.0801C76.81 50.4134 76.84 49.7467 76.86 49.0801C76.86 48.3901 76.86 47.7001 76.86 47.0001V44.2101C76.86 43.5001 76.86 42.8101 76.86 42.1301C76.86 41.4501 76.81 40.7701 76.77 40.0601L77.17 40.1201H77.56H77.94L78.34 40.0601C78.34 40.7667 78.31 41.4567 78.25 42.1301C78.25 42.8101 78.25 43.5001 78.25 44.2101V44.7701H79.93H83.27H84.94V44.2101C84.94 43.5001 84.93 42.8101 84.9 42.1301Z" fill="#2E3147"/>
<path d="M93.36 44.2101C93.36 43.5001 93.36 42.8101 93.36 42.1301C93.36 41.4501 93.3 40.7701 93.27 40.0601L94.18 40.1201H95.09C95.4 40.1201 95.71 40.1201 96.01 40.1201C96.3132 40.1049 96.6169 40.1049 96.92 40.1201C97.3501 40.1167 97.7793 40.1603 98.2 40.2501C98.576 40.3242 98.9353 40.4665 99.26 40.6701C99.5637 40.8631 99.8119 41.1319 99.98 41.4501C100.172 41.8201 100.265 42.2335 100.25 42.6501C100.261 43.1143 100.139 43.5721 99.9 43.9701C99.6821 44.3254 99.3968 44.6345 99.06 44.8801C98.7368 45.1189 98.3795 45.3077 98 45.4401C97.6746 45.5573 97.3402 45.6476 97 45.7101L97.52 46.3801L98.28 47.3801L99.14 48.4701L100 49.5501C100.28 49.9001 100.54 50.2201 100.79 50.5501C101.04 50.8801 101.23 51.0501 101.38 51.2001H100.9H99.96C99.8035 51.1898 99.6465 51.1898 99.49 51.2001L98.76 50.2001C98.44 49.7601 98.08 49.2801 97.68 48.7601C97.29 48.2501 96.89 47.7601 96.48 47.2401C96.07 46.7201 95.69 46.3001 95.35 45.9501H94.74V47.0001C94.74 47.7001 94.74 48.3901 94.74 49.0801C94.74 49.7701 94.8 50.4301 94.83 51.0801C94.58 51.0801 94.32 51.0801 94.04 51.0801C93.76 51.0801 93.51 51.0801 93.26 51.0801C93.26 50.4134 93.29 49.7467 93.35 49.0801C93.35 48.3901 93.35 47.7001 93.35 47.0001L93.36 44.2101ZM94.67 45.1201C94.8317 45.1517 94.9955 45.1717 95.16 45.1801H95.74C96.0767 45.1763 96.412 45.1361 96.74 45.0601C97.095 44.9946 97.4344 44.8622 97.74 44.6701C98.0456 44.486 98.3 44.2281 98.48 43.9201C98.6924 43.5605 98.7966 43.1473 98.78 42.7301C98.7876 42.3828 98.7086 42.0391 98.55 41.7301C98.4042 41.469 98.1986 41.2462 97.95 41.0801C97.7053 40.9229 97.4343 40.8111 97.15 40.7501C96.8705 40.691 96.5857 40.6609 96.3 40.6601C95.92 40.6601 95.62 40.6601 95.37 40.6601H94.75C94.75 41.2501 94.75 41.8301 94.68 42.4101C94.61 42.9901 94.68 43.5601 94.68 44.1401L94.67 45.1201Z" fill="#2E3147"/>
<path d="M118.77 44.27C119.53 45.7 120.31 47.17 121.13 48.67L121.6 47.8L122.3 46.49L123.16 44.9C123.46 44.33 123.77 43.75 124.09 43.17C124.41 42.59 124.71 42 125.02 41.44L125.89 39.85H126.09C126.21 40.8833 126.32 41.8833 126.42 42.85C126.52 43.85 126.63 44.74 126.73 45.67C126.83 46.6 126.95 47.5 127.05 48.4C127.15 49.3 127.28 50.2 127.41 51.08L127 51H126.25H125.87C125.76 49.58 125.64 48.21 125.52 46.87C125.4 45.53 125.26 44.18 125.09 42.8C124.35 44.1333 123.627 45.4666 122.92 46.8C122.21 48.13 121.53 49.52 120.92 50.97H120.77C120.103 49.6366 119.437 48.3033 118.77 46.97C118.103 45.6366 117.403 44.26 116.67 42.84C116.59 43.5 116.51 44.21 116.42 44.99C116.33 45.77 116.25 46.52 116.17 47.28C116.09 48.04 116.03 48.74 115.98 49.4C115.93 50.06 115.9 50.62 115.9 51.04C115.528 51 115.152 51 114.78 51.04C114.92 50.18 115.06 49.27 115.21 48.31C115.36 47.35 115.5 46.38 115.64 45.41C115.78 44.44 115.91 43.48 116.03 42.54C116.15 41.6 116.25 40.7 116.33 39.84H116.6C117.3 41.3666 118.023 42.8433 118.77 44.27Z" fill="#2E3147"/>
<path d="M133.52 44.22C133.919 43.9015 134.369 43.6515 134.85 43.48C135.252 43.357 135.67 43.293 136.09 43.29C136.45 43.2872 136.809 43.3446 137.15 43.46C137.454 43.5615 137.733 43.7249 137.97 43.94C138.194 44.1509 138.371 44.4064 138.49 44.69C138.627 45.0052 138.696 45.3462 138.69 45.69C138.69 46.3 138.69 46.9 138.69 47.51C138.69 48.12 138.69 48.75 138.69 49.42C138.69 49.55 138.69 49.68 138.69 49.83C138.696 49.9593 138.72 50.0871 138.76 50.21C138.799 50.3175 138.865 50.4136 138.95 50.49C139 50.5312 139.057 50.5621 139.119 50.581C139.181 50.5998 139.246 50.6063 139.31 50.6H139.47C139.53 50.5987 139.589 50.5814 139.64 50.55V50.9C139.499 50.9607 139.351 51.0043 139.2 51.03C139.007 51.0466 138.813 51.0466 138.62 51.03C138.331 51.0473 138.048 50.9503 137.83 50.76C137.648 50.577 137.535 50.3368 137.51 50.08C137.185 50.4262 136.803 50.7138 136.38 50.93C135.946 51.1222 135.474 51.2145 135 51.2C134.736 51.2035 134.473 51.1664 134.22 51.09C133.968 51.0193 133.736 50.8929 133.54 50.72C133.34 50.5517 133.176 50.3441 133.06 50.11C132.876 49.7309 132.817 49.3034 132.891 48.8886C132.964 48.4738 133.167 48.0928 133.47 47.8C133.945 47.4113 134.521 47.1652 135.13 47.09C135.71 46.99 136.13 46.91 136.48 46.84C136.727 46.7951 136.968 46.7248 137.2 46.63C137.263 46.6065 137.32 46.5704 137.368 46.524C137.416 46.4776 137.454 46.4218 137.48 46.36C137.515 46.2331 137.532 46.1017 137.53 45.97C137.533 45.71 137.499 45.4508 137.43 45.2C137.375 44.9682 137.273 44.7503 137.13 44.56C136.983 44.3772 136.799 44.2273 136.59 44.12C136.333 44.0021 136.053 43.944 135.77 43.95C135.356 43.9486 134.947 44.0481 134.58 44.24C134.231 44.4194 133.942 44.6977 133.75 45.04H133.58L133.52 44.22ZM137.47 47.07C137.264 47.1399 137.054 47.1934 136.84 47.23L136.11 47.37C135.862 47.4099 135.618 47.4701 135.38 47.55C135.154 47.6195 134.938 47.7204 134.74 47.85C134.56 47.9796 134.408 48.1426 134.29 48.33C134.173 48.5586 134.118 48.8137 134.13 49.07C134.112 49.2632 134.134 49.458 134.196 49.6419C134.258 49.8259 134.357 49.9949 134.488 50.1381C134.619 50.2812 134.778 50.3954 134.956 50.4733C135.134 50.5511 135.326 50.5909 135.52 50.59C135.916 50.5926 136.303 50.474 136.63 50.25C136.944 50.0508 137.211 49.7844 137.41 49.47L137.47 47.07Z" fill="#2E3147"/>
<path d="M150.08 44.7401C149.933 44.5402 149.74 44.3792 149.517 44.2711C149.294 44.163 149.048 44.1112 148.8 44.12C148.491 44.0933 148.181 44.1422 147.895 44.2624C147.609 44.3826 147.357 44.5706 147.16 44.8101C146.78 45.3827 146.597 46.064 146.64 46.7501V48.1101C146.64 48.5901 146.64 49.11 146.64 49.62C146.653 50.0983 146.689 50.5755 146.75 51.05H146.03H145.31C145.31 50.63 145.39 50.15 145.41 49.62C145.43 49.09 145.41 48.6201 145.41 48.1101V46.44C145.41 45.96 145.41 45.4401 145.41 44.9301C145.41 44.4201 145.36 43.9301 145.31 43.4501C145.547 43.5011 145.788 43.5279 146.03 43.53H146.31L146.67 43.4701C146.67 43.9001 146.62 44.3301 146.62 44.7501C146.892 44.3207 147.258 43.9584 147.69 43.69C148.142 43.4288 148.658 43.2973 149.18 43.3101C149.484 43.3141 149.787 43.3578 150.08 43.44C150.385 43.5258 150.668 43.6759 150.91 43.8801C151.17 44.1161 151.375 44.4063 151.51 44.7301C151.676 45.1672 151.754 45.6327 151.74 46.1C151.74 46.56 151.74 47.03 151.74 47.51C151.74 48 151.74 48.5101 151.74 49.0601V50.6C151.74 50.77 151.74 50.9201 151.74 51.0701C151.52 51.0701 151.3 51.0701 151.07 51.0701C150.84 51.0701 150.62 51.0701 150.41 51.0701C150.41 50.5201 150.41 49.9501 150.48 49.3601C150.55 48.7701 150.48 48.17 150.48 47.55V46.55C150.541 45.9196 150.401 45.286 150.08 44.7401V44.7401Z" fill="#2E3147"/>
<path d="M158.35 44.22C158.749 43.9015 159.199 43.6515 159.68 43.48C160.085 43.3562 160.506 43.2922 160.93 43.29C161.27 43.2933 161.608 43.3507 161.93 43.46C162.234 43.5615 162.513 43.7249 162.75 43.94C162.974 44.1531 163.154 44.4079 163.28 44.69C163.409 45.0074 163.474 45.3474 163.47 45.69C163.47 46.3 163.47 46.9 163.47 47.51C163.47 48.12 163.47 48.75 163.47 49.42C163.47 49.55 163.47 49.68 163.47 49.83C163.476 49.9593 163.5 50.0871 163.54 50.21C163.583 50.3156 163.648 50.4109 163.73 50.49C163.78 50.5312 163.837 50.5621 163.899 50.581C163.961 50.5999 164.026 50.6063 164.09 50.6H164.26C164.317 50.5974 164.372 50.5802 164.42 50.55V50.9C164.285 50.9502 164.143 50.9838 164 51C163.807 51.0166 163.613 51.0166 163.42 51C163.279 51.0095 163.137 50.9905 163.003 50.9441C162.869 50.8977 162.745 50.8249 162.64 50.73C162.449 50.5536 162.334 50.3097 162.32 50.05C161.99 50.3944 161.604 50.6816 161.18 50.9C160.746 51.0932 160.274 51.1855 159.8 51.17C159.536 51.1727 159.273 51.1357 159.02 51.06C158.768 50.9893 158.536 50.8629 158.34 50.69C158.14 50.5217 157.977 50.3141 157.86 50.08C157.689 49.6975 157.638 49.2723 157.713 48.8601C157.788 48.4479 157.985 48.068 158.28 47.77C158.751 47.3816 159.324 47.1354 159.93 47.06C160.51 46.96 160.93 46.88 161.28 46.81C161.527 46.7652 161.768 46.6948 162 46.6C162.063 46.5765 162.12 46.5404 162.168 46.494C162.216 46.4476 162.254 46.3918 162.28 46.33C162.32 46.2041 162.337 46.072 162.33 45.94C162.331 45.6807 162.301 45.4222 162.24 45.17C162.178 44.9392 162.072 44.7221 161.93 44.53C161.783 44.3473 161.599 44.1974 161.39 44.09C161.133 43.9721 160.853 43.914 160.57 43.92C160.156 43.9198 159.748 44.0193 159.38 44.21C159.03 44.3844 158.743 44.6642 158.56 45.01H158.38L158.35 44.22ZM162.35 47.07C162.145 47.1399 161.934 47.1934 161.72 47.23L160.99 47.37C160.742 47.4111 160.498 47.4713 160.26 47.55C160.034 47.6195 159.818 47.7205 159.62 47.85C159.441 47.9771 159.291 48.1407 159.18 48.33C159.055 48.556 158.996 48.8123 159.01 49.07C158.992 49.2632 159.014 49.458 159.076 49.642C159.138 49.8259 159.237 49.9949 159.368 50.1381C159.499 50.2813 159.658 50.3954 159.836 50.4733C160.014 50.5511 160.206 50.5909 160.4 50.59C160.796 50.596 161.185 50.477 161.51 50.25C161.827 50.0536 162.093 49.7866 162.29 49.47L162.35 47.07Z" fill="#2E3147"/>
<path d="M169.74 45.9C169.73 45.5 169.812 45.1031 169.98 44.74C170.137 44.4215 170.367 44.1441 170.65 43.93C170.951 43.7092 171.29 43.5464 171.65 43.45C172.034 43.3444 172.431 43.2906 172.83 43.29H173.41H174.12H174.78C174.933 43.2983 175.087 43.2983 175.24 43.29C175.675 43.2996 176.11 43.2729 176.54 43.21C176.534 43.2665 176.534 43.3234 176.54 43.38C176.535 43.4365 176.535 43.4934 176.54 43.55C176.535 43.6065 176.535 43.6634 176.54 43.72C176.535 43.7732 176.535 43.8267 176.54 43.88L175.64 43.81L174.76 43.75C175.104 43.9448 175.382 44.2371 175.56 44.59C175.758 44.9487 175.864 45.3505 175.87 45.76C175.888 46.1144 175.824 46.4682 175.684 46.7941C175.543 47.1201 175.33 47.4094 175.06 47.64C174.443 48.123 173.672 48.3648 172.89 48.32H172.45H172.01C171.811 48.3237 171.619 48.3981 171.47 48.53C171.392 48.5941 171.33 48.6752 171.288 48.7671C171.247 48.859 171.227 48.9592 171.23 49.06C171.219 49.1699 171.232 49.2809 171.266 49.3859C171.301 49.4909 171.356 49.5876 171.43 49.67C171.647 49.8178 171.908 49.8883 172.17 49.87H173.05H173.93C174.356 49.8705 174.781 49.9311 175.19 50.05C175.497 50.1334 175.783 50.2799 176.03 50.48C176.237 50.6451 176.402 50.8577 176.51 51.1C176.619 51.3417 176.674 51.6046 176.67 51.87C176.663 52.2598 176.589 52.6455 176.45 53.01C176.297 53.3851 176.069 53.7253 175.78 54.01C175.44 54.3385 175.04 54.5967 174.6 54.77C174.051 54.9919 173.462 55.0974 172.87 55.08C172.013 55.1257 171.162 54.9095 170.43 54.46C170.147 54.2802 169.915 54.0299 169.757 53.7337C169.599 53.4375 169.521 53.1054 169.53 52.77C169.528 52.509 169.579 52.2504 169.68 52.01C169.774 51.7797 169.906 51.5667 170.07 51.38C170.225 51.2041 170.412 51.0583 170.62 50.95C170.815 50.8425 171.023 50.7618 171.24 50.71V50.71C170.946 50.6332 170.683 50.4652 170.49 50.23C170.316 50.0002 170.224 49.7183 170.23 49.43C170.23 49.2573 170.267 49.0866 170.34 48.93C170.409 48.7859 170.496 48.6514 170.6 48.53C170.71 48.4172 170.834 48.3196 170.97 48.24C171.095 48.1728 171.23 48.1256 171.37 48.1V48.1C170.913 47.9091 170.515 47.5981 170.22 47.2C169.939 46.8216 169.772 46.3703 169.74 45.9V45.9ZM175.42 52.75C175.446 52.4962 175.408 52.2399 175.31 52.0043C175.213 51.7687 175.058 51.561 174.86 51.4C174.29 51.0939 173.645 50.9552 173 51C172.357 50.9649 171.715 51.0994 171.14 51.39C170.911 51.5445 170.729 51.7583 170.613 52.0084C170.497 52.2586 170.451 52.5357 170.48 52.81C170.475 53.1301 170.54 53.4475 170.67 53.74C170.785 53.9807 170.952 54.1926 171.16 54.36C171.383 54.5276 171.638 54.6469 171.91 54.71C172.213 54.7917 172.526 54.8321 172.84 54.83C173.158 54.8267 173.473 54.783 173.78 54.7C174.073 54.6172 174.351 54.4853 174.6 54.31C174.841 54.1425 175.043 53.924 175.19 53.67C175.344 53.3878 175.423 53.0712 175.42 52.75V52.75ZM174.56 45.82C174.599 45.2676 174.428 44.7209 174.08 44.29C173.921 44.1127 173.725 43.9731 173.505 43.8814C173.285 43.7898 173.048 43.7483 172.81 43.76C172.557 43.7466 172.304 43.792 172.072 43.8926C171.839 43.9932 171.633 44.1464 171.47 44.34C171.135 44.7885 170.968 45.3409 171 45.9C170.971 46.4636 171.125 47.0215 171.44 47.49C171.603 47.6922 171.813 47.8516 172.052 47.9544C172.291 48.0572 172.551 48.1003 172.81 48.08C173.086 48.0895 173.359 48.0238 173.6 47.89C173.816 47.7707 174 47.6029 174.14 47.4C174.29 47.1818 174.399 46.9377 174.46 46.68C174.529 46.3986 174.562 46.1097 174.56 45.82Z" fill="#2E3147"/>
<path d="M181.47 47.5C181.405 46.3909 181.738 45.295 182.41 44.41C182.749 44.0293 183.17 43.7306 183.641 43.5365C184.112 43.3425 184.621 43.2582 185.13 43.29C185.633 43.2774 186.134 43.3693 186.6 43.56C186.978 43.7223 187.318 43.9606 187.6 44.26C187.874 44.5464 188.085 44.887 188.22 45.26C188.354 45.6701 188.421 46.0987 188.42 46.53C188.42 46.63 188.42 46.74 188.42 46.84C188.42 46.94 188.42 47.04 188.42 47.15H186.71H185H183.95H182.95C182.937 47.2295 182.937 47.3105 182.95 47.39V47.6C182.948 47.997 183.009 48.3919 183.13 48.77C183.245 49.1133 183.429 49.4297 183.67 49.7C183.911 49.9665 184.203 50.1809 184.53 50.33C184.906 50.4885 185.312 50.5668 185.72 50.56C185.94 50.5589 186.158 50.5287 186.37 50.47C186.597 50.4111 186.818 50.3307 187.03 50.23C187.241 50.1294 187.442 50.0088 187.63 49.87C187.81 49.7386 187.974 49.5877 188.12 49.42H188.2L188.1 50.21C187.738 50.4841 187.337 50.7032 186.91 50.86C186.437 51.039 185.936 51.1305 185.43 51.13C184.892 51.1349 184.358 51.047 183.85 50.87C183.392 50.7005 182.973 50.4384 182.62 50.1C182.271 49.7651 181.999 49.3593 181.82 48.91C181.615 48.4663 181.497 47.9879 181.47 47.5ZM185.17 43.81C184.817 43.7977 184.469 43.8917 184.17 44.08C183.898 44.2567 183.667 44.4883 183.49 44.76C183.319 45.0381 183.184 45.3373 183.09 45.65C183.007 45.9508 182.953 46.2589 182.93 46.57H183.93C184.29 46.57 184.64 46.57 184.93 46.57C185.22 46.57 185.64 46.57 186 46.57H187C187 46.2653 186.977 45.9611 186.93 45.66C186.887 45.3485 186.789 45.0472 186.64 44.77C186.502 44.4924 186.296 44.2549 186.04 44.08C185.78 43.9121 185.479 43.8187 185.17 43.81Z" fill="#2E3147"/>
<path d="M194.1 44.93C194.1 44.4 194.1 43.93 194 43.45C194.237 43.5001 194.478 43.5269 194.72 43.53H195L195.36 43.47C195.36 43.9 195.31 44.33 195.31 44.75C195.484 44.4159 195.727 44.122 196.022 43.8875C196.317 43.653 196.658 43.4831 197.022 43.3888C197.387 43.2946 197.768 43.278 198.14 43.3402C198.511 43.4024 198.866 43.5421 199.18 43.75C199.383 43.8909 199.561 44.063 199.71 44.26C199.856 44.446 199.962 44.6606 200.02 44.89C200.234 44.4091 200.581 43.9996 201.02 43.71C201.478 43.4339 202.005 43.2918 202.54 43.3C202.879 43.294 203.217 43.3447 203.54 43.45C203.83 43.5359 204.097 43.6863 204.32 43.89C204.545 44.1135 204.719 44.383 204.83 44.68C204.958 45.0495 205.019 45.439 205.01 45.83C205.01 46.01 205.01 46.21 205.01 46.42C205.01 46.63 205.01 46.88 205.01 47.17C205.01 47.46 205.01 47.77 205.01 48.17C205.01 48.57 205.01 48.94 205.01 49.41V50.24C205.01 50.51 205.01 50.79 205.01 51.1C204.894 51.0898 204.776 51.0898 204.66 51.1H204H203.65C203.65 50.84 203.72 50.3 203.76 49.49C203.8 48.68 203.76 47.55 203.76 46.09C203.761 45.8373 203.731 45.5854 203.67 45.34C203.622 45.1218 203.527 44.9169 203.39 44.74C203.263 44.5573 203.086 44.4149 202.88 44.33C202.628 44.2185 202.355 44.1638 202.08 44.17C201.732 44.1551 201.386 44.2345 201.08 44.4C200.833 44.5271 200.618 44.7083 200.45 44.93C200.37 45.0386 200.303 45.1561 200.25 45.28C200.191 45.4546 200.154 45.6361 200.14 45.82C200.14 46.05 200.14 46.39 200.08 46.82C200.02 47.25 200.08 47.82 200.08 48.61C200.08 49.07 200.08 49.48 200.08 49.86C200.08 50.24 200.08 50.65 200.14 51.1H199.43H198.73C198.73 50.52 198.82 49.92 198.84 49.31C198.86 48.7 198.84 48.11 198.84 47.52V46.29C198.84 46.01 198.84 45.79 198.84 45.62C198.82 45.4813 198.79 45.3443 198.75 45.21L198.6 44.86C198.464 44.6388 198.271 44.4589 198.04 44.34C197.806 44.2018 197.541 44.126 197.27 44.12C196.975 44.096 196.678 44.1467 196.407 44.2672C196.136 44.3878 195.9 44.5744 195.72 44.81C195.356 45.389 195.181 46.0671 195.22 46.75V48.11C195.22 48.59 195.22 49.11 195.22 49.62C195.22 50.13 195.28 50.62 195.33 51.05H194.61H193.89C193.94 50.63 193.98 50.15 193.99 49.62C194 49.09 193.99 48.62 193.99 48.11V46.44C194.13 46 194.12 45.46 194.1 44.93Z" fill="#2E3147"/>
<path d="M210.73 47.4999C210.669 46.3913 211.002 45.297 211.67 44.4099C212.01 44.0284 212.433 43.7293 212.906 43.5353C213.379 43.3412 213.89 43.2573 214.4 43.2899C214.9 43.2781 215.397 43.37 215.86 43.5599C216.239 43.7208 216.579 43.9592 216.86 44.2599C217.137 44.5438 217.349 44.8852 217.48 45.2599C217.613 45.67 217.681 46.0987 217.68 46.5299C217.68 46.6299 217.68 46.7399 217.68 46.8399C217.68 46.9399 217.68 47.0399 217.68 47.1499H215.97H214.25H213.25H212.2C212.192 47.2298 212.192 47.3101 212.2 47.3899V47.5999C212.196 47.9979 212.261 48.3936 212.39 48.7699C212.502 49.1127 212.682 49.4291 212.92 49.6999C213.166 49.9645 213.462 50.1785 213.79 50.3299C214.163 50.4885 214.565 50.5668 214.97 50.5599C215.193 50.5583 215.415 50.528 215.63 50.4699C215.853 50.4093 216.071 50.329 216.28 50.2299C216.493 50.1338 216.695 50.0129 216.88 49.8699C217.059 49.7386 217.224 49.5876 217.37 49.4199H217.45L217.35 50.2099C216.989 50.4861 216.587 50.7053 216.16 50.8599C215.687 51.0398 215.186 51.1313 214.68 51.1299C214.146 51.1347 213.614 51.0468 213.11 50.8699C212.654 50.6974 212.24 50.4298 211.895 50.085C211.55 49.7402 211.283 49.326 211.11 48.8699C210.904 48.4391 210.775 47.9754 210.73 47.4999V47.4999ZM214.43 43.8099C214.077 43.7988 213.729 43.8928 213.43 44.0799C213.159 44.2541 212.93 44.4864 212.76 44.7599C212.581 45.0337 212.446 45.3341 212.36 45.6499C212.274 45.9505 212.217 46.2585 212.19 46.5699H213.19C213.55 46.5699 213.9 46.5699 214.24 46.5699C214.58 46.5699 214.95 46.5699 215.31 46.5699H216.37C216.365 46.2655 216.342 45.9616 216.3 45.6599C216.252 45.3496 216.154 45.049 216.01 44.7699C215.866 44.4967 215.661 44.2605 215.41 44.0799C215.118 43.8933 214.776 43.7992 214.43 43.8099V43.8099Z" fill="#2E3147"/>
<path d="M228.11 44.74C227.963 44.5401 227.77 44.3791 227.547 44.271C227.324 44.163 227.078 44.1111 226.83 44.12C226.521 44.0941 226.211 44.1434 225.925 44.2636C225.64 44.3837 225.387 44.5712 225.19 44.81C224.81 45.3826 224.627 46.0639 224.67 46.75V48.11C224.67 48.59 224.67 49.11 224.67 49.62C224.682 50.0982 224.719 50.5755 224.78 51.05H224.06H223.34C223.34 50.63 223.43 50.15 223.44 49.62C223.45 49.09 223.44 48.62 223.44 48.11V46.44C223.44 45.96 223.44 45.44 223.44 44.93C223.44 44.42 223.39 43.93 223.34 43.45C223.577 43.5 223.818 43.5268 224.06 43.53H224.34L224.7 43.47C224.7 43.9 224.65 44.33 224.65 44.75C224.922 44.3207 225.288 43.9583 225.72 43.69C226.173 43.4301 226.688 43.2988 227.21 43.31C227.518 43.3146 227.823 43.3583 228.12 43.44C228.421 43.5282 228.7 43.678 228.94 43.88C229.203 44.1133 229.408 44.4042 229.54 44.73C229.706 45.1671 229.784 45.6326 229.77 46.1C229.77 46.56 229.77 47.03 229.77 47.51C229.77 48 229.77 48.51 229.77 49.06V50.06C229.77 50.23 229.77 50.4 229.77 50.56C229.77 50.72 229.77 50.88 229.77 51.03C229.56 51.03 229.33 51.03 229.1 51.03C228.87 51.03 228.66 51.03 228.44 51.03C228.44 50.48 228.44 49.91 228.51 49.32C228.58 48.73 228.51 48.13 228.51 47.51V46.51C228.563 45.8928 228.423 45.2746 228.11 44.74V44.74Z" fill="#2E3147"/>
<path d="M237.68 41.31C237.68 41.71 237.62 42.11 237.61 42.5L237.55 43.68H238.21H239.21C239.201 43.7396 239.201 43.8003 239.21 43.86V44.1899C239.202 44.243 239.202 44.2969 239.21 44.3499H238.77H237.51C237.51 44.3499 237.51 44.56 237.51 44.86C237.51 45.16 237.51 45.51 237.51 45.93C237.51 46.35 237.51 46.7699 237.51 47.2099C237.51 47.6499 237.51 48.06 237.51 48.41C237.51 48.76 237.51 49 237.51 49.29C237.525 49.5555 237.576 49.8177 237.66 50.07C237.74 50.2842 237.874 50.4738 238.05 50.6199C238.261 50.7736 238.519 50.848 238.78 50.83H239.13C239.255 50.8123 239.379 50.7855 239.5 50.75V51L238.9 51.1199C238.693 51.1679 238.482 51.1914 238.27 51.1899C238.001 51.2129 237.731 51.1813 237.475 51.0971C237.219 51.0129 236.982 50.8778 236.78 50.7C236.608 50.5003 236.476 50.2685 236.394 50.0179C236.312 49.7673 236.28 49.5029 236.3 49.24C236.3 48.95 236.3 48.64 236.3 48.31C236.3 47.98 236.3 47.6 236.3 47.2C236.3 46.8 236.3 46.3599 236.3 45.8699C236.3 45.3799 236.3 44.87 236.3 44.25H235.51H235.21C235.215 44.1901 235.215 44.1298 235.21 44.07C235.215 44.0067 235.215 43.9432 235.21 43.88C235.215 43.8267 235.215 43.7732 235.21 43.72C235.214 43.6667 235.214 43.6132 235.21 43.56C235.69 43.56 236.04 43.56 236.26 43.56C236.26 43.35 236.26 43.0799 236.26 42.7599C236.26 42.4399 236.26 42.1099 236.26 41.7599L237.59 41.2L237.68 41.31Z" fill="#2E3147"/>
</svg>
